<svg width="61" height="61" viewBox="0 0 61 61" fill="none" xmlns="http://www.w3.org/2000/svg">
<path d="M57.9243 53.2293V48.2293C57.9209 43.6721 54.8368 39.6936 50.4243 38.5543" stroke="white" stroke-width="2.5" stroke-linecap="round" stroke-linejoin="round"/>
<path d="M42.9243 53.2294V48.2294C42.9243 42.7065 38.4472 38.2294 32.9243 38.2294H12.9243C7.40147 38.2294 2.92432 42.7065 2.92432 48.2294V53.2294" stroke="white" stroke-width="2.5" stroke-linecap="round" stroke-linejoin="round"/>
<path d="M40.4243 8.55432C44.8491 9.68725 47.9439 13.6743 47.9439 18.2418C47.9439 22.8093 44.8491 26.7964 40.4243 27.9293" stroke="white" stroke-width="2.5" stroke-linecap="round" stroke-linejoin="round"/>
<path fill-rule="evenodd" clip-rule="evenodd" d="M22.9243 28.2294C28.4472 28.2294 32.9243 23.7522 32.9243 18.2294C32.9243 12.7065 28.4472 8.22937 22.9243 8.22937C17.4015 8.22937 12.9243 12.7065 12.9243 18.2294C12.9243 23.7522 17.4015 28.2294 22.9243 28.2294Z" stroke="white" stroke-width="2.5" stroke-linecap="round" stroke-linejoin="round"/>
</svg>
