<svg width="50" height="50" viewBox="0 0 50 50" fill="none" xmlns="http://www.w3.org/2000/svg">
<rect x="1.25" y="1.25" width="47.5" height="47.5" rx="23.75" stroke="white" stroke-width="2.5"/>
<path d="M20.2886 25.5869H22.2396V33.7083C22.2396 33.87 22.3682 34 22.5282 34H25.8389C25.9988 34 26.1275 33.87 26.1275 33.7083V25.6255H28.3706C28.5166 25.6255 28.6383 25.5166 28.6557 25.369L28.9965 22.3784C29.007 22.2975 28.9791 22.2132 28.927 22.1535C28.8713 22.0902 28.7948 22.0551 28.7114 22.0551H26.1275V20.182C26.1275 19.6162 26.4301 19.3315 27.0213 19.3315C27.1047 19.3315 28.7114 19.3315 28.7114 19.3315C28.8713 19.3315 29 19.2015 29 19.0398V16.2952C29 16.1335 28.8713 16.0035 28.7114 16.0035H26.3814C26.364 16.0035 26.3292 16 26.2736 16C25.8702 16 24.4652 16.0808 23.3559 17.1105C22.1248 18.2597 22.2952 19.6267 22.3369 19.8622V22.0551H20.2886C20.1287 22.0551 20 22.1851 20 22.3467V25.2987C20 25.4569 20.1287 25.5869 20.2886 25.5869Z" fill="#385C8E"/>
<path d="M20.2886 25.5869H22.2396V33.7083C22.2396 33.87 22.3682 34 22.5282 34H25.8389C25.9988 34 26.1275 33.87 26.1275 33.7083V25.6255H28.3706C28.5166 25.6255 28.6383 25.5166 28.6557 25.369L28.9965 22.3784C29.007 22.2975 28.9791 22.2132 28.927 22.1535C28.8713 22.0902 28.7948 22.0551 28.7114 22.0551H26.1275V20.182C26.1275 19.6162 26.4301 19.3315 27.0213 19.3315C27.1047 19.3315 28.7114 19.3315 28.7114 19.3315C28.8713 19.3315 29 19.2015 29 19.0398V16.2952C29 16.1335 28.8713 16.0035 28.7114 16.0035H26.3814C26.364 16.0035 26.3292 16 26.2736 16C25.8702 16 24.4652 16.0808 23.3559 17.1105C22.1248 18.2597 22.2952 19.6267 22.3369 19.8622V22.0551H20.2886C20.1287 22.0551 20 22.1851 20 22.3467V25.2987C20 25.4569 20.1287 25.5869 20.2886 25.5869Z" fill="black"/>
<path d="M20.2886 25.5869H22.2396V33.7083C22.2396 33.87 22.3682 34 22.5282 34H25.8389C25.9988 34 26.1275 33.87 26.1275 33.7083V25.6255H28.3706C28.5166 25.6255 28.6383 25.5166 28.6557 25.369L28.9965 22.3784C29.007 22.2975 28.9791 22.2132 28.927 22.1535C28.8713 22.0902 28.7948 22.0551 28.7114 22.0551H26.1275V20.182C26.1275 19.6162 26.4301 19.3315 27.0213 19.3315C27.1047 19.3315 28.7114 19.3315 28.7114 19.3315C28.8713 19.3315 29 19.2015 29 19.0398V16.2952C29 16.1335 28.8713 16.0035 28.7114 16.0035H26.3814C26.364 16.0035 26.3292 16 26.2736 16C25.8702 16 24.4652 16.0808 23.3559 17.1105C22.1248 18.2597 22.2952 19.6267 22.3369 19.8622V22.0551H20.2886C20.1287 22.0551 20 22.1851 20 22.3467V25.2987C20 25.4569 20.1287 25.5869 20.2886 25.5869Z" fill="white"/>
</svg>
