<svg width="50" height="50" viewBox="0 0 50 50" fill="none" xmlns="http://www.w3.org/2000/svg">
<rect x="1.25" y="1.25" width="47.5" height="47.5" rx="23.75" stroke="white" stroke-width="2.5"/>
<path d="M32.1512 26.6295C32.8484 27.3171 33.5826 27.9632 34.206 28.7171C34.4807 29.0526 34.7432 29.4005 34.9442 29.7899C35.2272 30.3449 34.9729 30.9538 34.4807 30.9869H31.4212C30.6337 31.0532 30.0021 30.7342 29.4731 30.1875C29.0507 29.7526 28.6569 29.2887 28.2509 28.8372C28.0828 28.655 27.9105 28.481 27.7013 28.3443C27.283 28.0709 26.9221 28.1538 26.6842 28.5928C26.4422 29.0402 26.3848 29.5372 26.3602 30.0342C26.3274 30.7632 26.11 30.9538 25.3841 30.9869C23.8379 31.0615 22.3697 30.8254 21.0081 30.0384C19.8064 29.3425 18.8754 28.365 18.0633 27.255C16.4843 25.0928 15.2745 22.7153 14.1876 20.2757C13.9416 19.7248 14.122 19.4307 14.7249 19.4183C15.7215 19.3976 16.7222 19.4017 17.7188 19.4183C18.1249 19.4224 18.3914 19.6585 18.5514 20.0479C19.0928 21.3899 19.7531 22.6656 20.5815 23.8461C20.803 24.1609 21.0286 24.4757 21.3485 24.6952C21.7012 24.9396 21.9719 24.8609 22.14 24.4591C22.2466 24.2064 22.2918 23.9331 22.3164 23.6638C22.3943 22.7319 22.4066 21.7999 22.2671 20.8721C22.181 20.2922 21.857 19.9153 21.2869 19.8076C20.9957 19.7496 21.0368 19.642 21.1803 19.4721C21.4264 19.1822 21.6561 18.9999 22.1195 18.9999H25.5769C26.1223 19.1076 26.2413 19.3562 26.3151 19.907L26.3192 23.784C26.3151 23.9993 26.4258 24.6331 26.8073 24.7739C27.1149 24.8733 27.3158 24.6289 27.4963 24.4301C28.3247 23.5437 28.9153 22.4958 29.4444 21.4064C29.6781 20.9301 29.8791 20.4331 30.076 19.936C30.2195 19.5674 30.4492 19.3893 30.8593 19.3976L34.1772 19.41C34.2757 19.41 34.3741 19.41 34.4725 19.4266C35.0344 19.5218 35.1862 19.7662 35.0139 20.3212C34.7391 21.1869 34.2101 21.9118 33.6892 22.6366C33.1355 23.4112 32.5408 24.1609 31.9913 24.9396C31.4868 25.652 31.5237 26.0124 32.1512 26.6295Z" fill="#436EAB"/>
<path d="M32.1512 26.6295C32.8484 27.3171 33.5826 27.9632 34.206 28.7171C34.4807 29.0526 34.7432 29.4005 34.9442 29.7899C35.2272 30.3449 34.9729 30.9538 34.4807 30.9869H31.4212C30.6337 31.0532 30.0021 30.7342 29.4731 30.1875C29.0507 29.7526 28.6569 29.2887 28.2509 28.8372C28.0828 28.655 27.9105 28.481 27.7013 28.3443C27.283 28.0709 26.9221 28.1538 26.6842 28.5928C26.4422 29.0402 26.3848 29.5372 26.3602 30.0342C26.3274 30.7632 26.11 30.9538 25.3841 30.9869C23.8379 31.0615 22.3697 30.8254 21.0081 30.0384C19.8064 29.3425 18.8754 28.365 18.0633 27.255C16.4843 25.0928 15.2745 22.7153 14.1876 20.2757C13.9416 19.7248 14.122 19.4307 14.7249 19.4183C15.7215 19.3976 16.7222 19.4017 17.7188 19.4183C18.1249 19.4224 18.3914 19.6585 18.5514 20.0479C19.0928 21.3899 19.7531 22.6656 20.5815 23.8461C20.803 24.1609 21.0286 24.4757 21.3485 24.6952C21.7012 24.9396 21.9719 24.8609 22.14 24.4591C22.2466 24.2064 22.2918 23.9331 22.3164 23.6638C22.3943 22.7319 22.4066 21.7999 22.2671 20.8721C22.181 20.2922 21.857 19.9153 21.2869 19.8076C20.9957 19.7496 21.0368 19.642 21.1803 19.4721C21.4264 19.1822 21.6561 18.9999 22.1195 18.9999H25.5769C26.1223 19.1076 26.2413 19.3562 26.3151 19.907L26.3192 23.784C26.3151 23.9993 26.4258 24.6331 26.8073 24.7739C27.1149 24.8733 27.3158 24.6289 27.4963 24.4301C28.3247 23.5437 28.9153 22.4958 29.4444 21.4064C29.6781 20.9301 29.8791 20.4331 30.076 19.936C30.2195 19.5674 30.4492 19.3893 30.8593 19.3976L34.1772 19.41C34.2757 19.41 34.3741 19.41 34.4725 19.4266C35.0344 19.5218 35.1862 19.7662 35.0139 20.3212C34.7391 21.1869 34.2101 21.9118 33.6892 22.6366C33.1355 23.4112 32.5408 24.1609 31.9913 24.9396C31.4868 25.652 31.5237 26.0124 32.1512 26.6295Z" fill="black"/>
<path d="M32.1512 26.6295C32.8484 27.3171 33.5826 27.9632 34.206 28.7171C34.4807 29.0526 34.7432 29.4005 34.9442 29.7899C35.2272 30.3449 34.9729 30.9538 34.4807 30.9869H31.4212C30.6337 31.0532 30.0021 30.7342 29.4731 30.1875C29.0507 29.7526 28.6569 29.2887 28.2509 28.8372C28.0828 28.655 27.9105 28.481 27.7013 28.3443C27.283 28.0709 26.9221 28.1538 26.6842 28.5928C26.4422 29.0402 26.3848 29.5372 26.3602 30.0342C26.3274 30.7632 26.11 30.9538 25.3841 30.9869C23.8379 31.0615 22.3697 30.8254 21.0081 30.0384C19.8064 29.3425 18.8754 28.365 18.0633 27.255C16.4843 25.0928 15.2745 22.7153 14.1876 20.2757C13.9416 19.7248 14.122 19.4307 14.7249 19.4183C15.7215 19.3976 16.7222 19.4017 17.7188 19.4183C18.1249 19.4224 18.3914 19.6585 18.5514 20.0479C19.0928 21.3899 19.7531 22.6656 20.5815 23.8461C20.803 24.1609 21.0286 24.4757 21.3485 24.6952C21.7012 24.9396 21.9719 24.8609 22.14 24.4591C22.2466 24.2064 22.2918 23.9331 22.3164 23.6638C22.3943 22.7319 22.4066 21.7999 22.2671 20.8721C22.181 20.2922 21.857 19.9153 21.2869 19.8076C20.9957 19.7496 21.0368 19.642 21.1803 19.4721C21.4264 19.1822 21.6561 18.9999 22.1195 18.9999H25.5769C26.1223 19.1076 26.2413 19.3562 26.3151 19.907L26.3192 23.784C26.3151 23.9993 26.4258 24.6331 26.8073 24.7739C27.1149 24.8733 27.3158 24.6289 27.4963 24.4301C28.3247 23.5437 28.9153 22.4958 29.4444 21.4064C29.6781 20.9301 29.8791 20.4331 30.076 19.936C30.2195 19.5674 30.4492 19.3893 30.8593 19.3976L34.1772 19.41C34.2757 19.41 34.3741 19.41 34.4725 19.4266C35.0344 19.5218 35.1862 19.7662 35.0139 20.3212C34.7391 21.1869 34.2101 21.9118 33.6892 22.6366C33.1355 23.4112 32.5408 24.1609 31.9913 24.9396C31.4868 25.652 31.5237 26.0124 32.1512 26.6295Z" fill="white"/>
</svg>
