<svg width="50" height="50" viewBox="0 0 50 50" fill="none" xmlns="http://www.w3.org/2000/svg">
<rect x="1.25" y="1.25" width="47.5" height="47.5" rx="23.75" stroke="white" stroke-width="2.5"/>
<path d="M29.6882 13.5H20.3919C16.6138 13.5 13.54 16.5737 13.54 20.3518V29.6482C13.54 33.4263 16.6138 36.5 20.3919 36.5H29.6882C33.4663 36.5 36.54 33.4263 36.54 29.6482V20.3518C36.54 16.5737 33.4663 13.5 29.6882 13.5ZM34.2262 29.6482C34.2262 32.1544 32.1945 34.1862 29.6882 34.1862H20.3919C17.8856 34.1862 15.8538 32.1544 15.8538 29.6482V20.3518C15.8538 17.8455 17.8856 15.8138 20.3919 15.8138H29.6882C32.1945 15.8138 34.2262 17.8455 34.2262 20.3518V29.6482Z" fill="white"/>
<path d="M29.6882 13.5H20.3919C16.6138 13.5 13.54 16.5737 13.54 20.3518V29.6482C13.54 33.4263 16.6138 36.5 20.3919 36.5H29.6882C33.4663 36.5 36.54 33.4263 36.54 29.6482V20.3518C36.54 16.5737 33.4663 13.5 29.6882 13.5ZM34.2262 29.6482C34.2262 32.1544 32.1945 34.1862 29.6882 34.1862H20.3919C17.8856 34.1862 15.8538 32.1544 15.8538 29.6482V20.3518C15.8538 17.8455 17.8856 15.8138 20.3919 15.8138H29.6882C32.1945 15.8138 34.2262 17.8455 34.2262 20.3518V29.6482Z" fill="black"/>
<path d="M29.6882 13.5H20.3919C16.6138 13.5 13.54 16.5737 13.54 20.3518V29.6482C13.54 33.4263 16.6138 36.5 20.3919 36.5H29.6882C33.4663 36.5 36.54 33.4263 36.54 29.6482V20.3518C36.54 16.5737 33.4663 13.5 29.6882 13.5ZM34.2262 29.6482C34.2262 32.1544 32.1945 34.1862 29.6882 34.1862H20.3919C17.8856 34.1862 15.8538 32.1544 15.8538 29.6482V20.3518C15.8538 17.8455 17.8856 15.8138 20.3919 15.8138H29.6882C32.1945 15.8138 34.2262 17.8455 34.2262 20.3518V29.6482Z" fill="white"/>
<path d="M25.0407 19.0514C21.7606 19.0514 19.092 21.7199 19.092 25C19.092 28.28 21.7606 30.9486 25.0407 30.9486C28.3207 30.9486 30.9893 28.28 30.9893 25C30.9893 21.7199 28.3207 19.0514 25.0407 19.0514ZM25.0407 28.6348C23.0332 28.6348 21.4058 27.0075 21.4058 25C21.4058 22.9925 23.0332 21.3652 25.0407 21.3652C27.0481 21.3652 28.6755 22.9925 28.6755 25C28.6755 27.0074 27.0481 28.6348 25.0407 28.6348Z" fill="white"/>
<path d="M25.0407 19.0514C21.7606 19.0514 19.092 21.7199 19.092 25C19.092 28.28 21.7606 30.9486 25.0407 30.9486C28.3207 30.9486 30.9893 28.28 30.9893 25C30.9893 21.7199 28.3207 19.0514 25.0407 19.0514ZM25.0407 28.6348C23.0332 28.6348 21.4058 27.0075 21.4058 25C21.4058 22.9925 23.0332 21.3652 25.0407 21.3652C27.0481 21.3652 28.6755 22.9925 28.6755 25C28.6755 27.0074 27.0481 28.6348 25.0407 28.6348Z" fill="black"/>
<path d="M25.0407 19.0514C21.7606 19.0514 19.092 21.7199 19.092 25C19.092 28.28 21.7606 30.9486 25.0407 30.9486C28.3207 30.9486 30.9893 28.28 30.9893 25C30.9893 21.7199 28.3207 19.0514 25.0407 19.0514ZM25.0407 28.6348C23.0332 28.6348 21.4058 27.0075 21.4058 25C21.4058 22.9925 23.0332 21.3652 25.0407 21.3652C27.0481 21.3652 28.6755 22.9925 28.6755 25C28.6755 27.0074 27.0481 28.6348 25.0407 28.6348Z" fill="white"/>
<path d="M31.0009 20.5212C31.7881 20.5212 32.4263 19.883 32.4263 19.0958C32.4263 18.3085 31.7881 17.6703 31.0009 17.6703C30.2136 17.6703 29.5754 18.3085 29.5754 19.0958C29.5754 19.883 30.2136 20.5212 31.0009 20.5212Z" fill="white"/>
<path d="M31.0009 20.5212C31.7881 20.5212 32.4263 19.883 32.4263 19.0958C32.4263 18.3085 31.7881 17.6703 31.0009 17.6703C30.2136 17.6703 29.5754 18.3085 29.5754 19.0958C29.5754 19.883 30.2136 20.5212 31.0009 20.5212Z" fill="black"/>
</svg>
