<svg width="915" height="220" viewBox="0 0 915 220" fill="none" xmlns="http://www.w3.org/2000/svg">
<path fill-rule="evenodd" clip-rule="evenodd" d="M813.9 217.44L813.77 217.01L802.9 190.23V190.22L791.3 161.6L774.48 120.21L758.28 80.28L752.45 65.84L752.05 65.55L735.1 65.6L733.07 69.19L731.93 71.96L683.26 190.24L674.99 210.33L674.22 212.21L671.88 217.98L672.41 218.03L672.76 218.09L704.98 218.12L705.37 217.83L705.69 217L707.66 211.91L715.95 190.67L716.3 190.21L748.17 190.24L769.59 190.23L770.02 190.47L778.23 211.58L780.19 216.66L782.22 218.13L810.79 218.1H813.02H813.05H812.77H813.06L813.5 218.06L814.12 218.03L813.9 217.44ZM743.12 120.2L759.37 161.59H726.66L743.12 120.2Z" fill="white"/>
<path fill-rule="evenodd" clip-rule="evenodd" d="M649.05 118.31L648.36 113.4L647.23 108.27L645.72 103.43L643.84 98.88L641.59 94.62L641.05 93.8L638.98 90.63L636.02 86.93L632.71 83.5L629.05 80.34L625.06 77.45L620.74 74.83L616.09 72.47L611.35 70.49L606.53 68.89L601.64 67.64L596.68 66.71L591.66 66.07L586.59 65.7L581.48 65.57L562.14 65.54L531.51 65.56V218.1H561.32V183.14H561.98L562.51 183.15L562.98 183.14L581.69 182.96L586.35 182.83L591 182.6L595.76 182.15L600.44 181.4L605.04 180.34L609.55 178.97L613.97 177.29L618.29 175.29L622.5 172.97L626.77 170.17L630.72 167.05L634.34 163.61L637.61 159.85L640.52 155.75L641.08 154.77L643.07 151.31L645.16 146.77L646.82 142.17L648.06 137.5L648.89 132.78L649.33 128L649.38 123.17L649.05 118.31ZM620.65 127.36L620.01 131.66L618.73 135.81L616.76 139.79L613.68 143.94L610 147.3L605.76 149.96L601.06 152.01L597.01 153.26L592.89 154.12L588.71 154.62L584.49 154.78H561.29V94.86H592.56L595.8 95.3L599.05 96.13L603.8 98.01L608.35 100.6L611.99 103.44L614.99 106.64L617.36 110.19L619.1 114.09L620.22 118.34L620.73 122.93L620.65 127.36Z" fill="white"/>
<path fill-rule="evenodd" clip-rule="evenodd" d="M483.55 217.64L483.45 217.44L446.46 159.78L443.87 155.77L443.5 155.22L441.68 152.52L439.32 149.41L436.73 146.48L433.86 143.8L429.85 140.9L428.5 139.96L429.47 139.28L430.46 138.58L431.44 137.86L432.39 137.1L436.48 133.26L440.2 129.11L442.37 126.29L446.76 120.08L479.21 69.48L481.61 65.63L481.13 65.59L480.91 65.54H469.98L448.01 65.59L447.24 66.13L446.92 66.64L422.28 105.01L419.34 109.51L416.35 113.99L413.31 118.43L410.88 121.36L404.73 125.26L400.95 126L394.68 126.21L387.27 126.29H386.13L383.69 126.28V65.64H353.72V217.97H383.73L383.72 157.04L383.73 155.7L383.77 155.22L397.01 155.37L401.04 155.48L405.3 156.22L409.21 158.18L413.16 161.75L416.33 166L449.62 217.92L450.11 218.1L482.82 218.09L483.18 218.05L483.77 218.02L483.55 217.64Z" fill="white"/>
<path fill-rule="evenodd" clip-rule="evenodd" d="M119.41 65.61L119.19 65.55L110.92 65.54L102.33 65.59L101.63 66.08L30.64 160.64L30.38 160.9L29.9 161.45V65.67H0V218L0.34 218.04L0.56 218.08L8.76 218.09L17.29 218.04L17.98 217.55L60.24 161.45L86.29 126.83L89.78 122.25V217.98H119.76V122.25V65.65L119.41 65.61Z" fill="white"/>
<path fill-rule="evenodd" clip-rule="evenodd" d="M300.74 191.69L284.38 176.68L280.73 179.88L276.57 182.91L272.28 185.49L267.86 187.62L263.32 189.3L258.67 190.54L253.9 191.34L249.02 191.69L244.03 191.6L238.94 191.08L233.93 190.12L229.23 188.76L224.82 186.98L220.72 184.79L216.94 182.19L213.46 179.2L210.3 175.8L207.46 172.01L204.94 167.82L202.74 163.24L200.94 158.41L199.63 153.54L198.8 148.65L198.45 143.74L198.57 138.81L199.16 133.88L200.21 128.95L201.72 124.02L203.73 119.11L206.15 114.57L208.99 110.43L212.26 106.69L215.93 103.35L220.03 100.43L224.55 97.93L229.48 95.86L234.16 94.41L238.82 93.43L243.45 92.9L248.07 92.8L252.66 93.14L257.23 93.88L261.77 95.02L266.28 96.54L270.77 98.43L274.43 100.35L277.9 102.59L281.19 105.14L284.33 107.96L300.85 92.8L304.02 89.9L300.91 86.69L297.6 83.66L294.11 80.83L290.46 78.19L286.64 75.76L282.67 73.55L278.57 71.56L274.34 69.8L270 68.28L265.55 67.02L261.02 66.01L256.41 65.26L251.73 64.79L247 64.6L242.23 64.71L237.42 65.11L232.59 65.81L227.76 66.84L222.92 68.18L218.11 69.86L213.77 71.68L209.58 73.74L205.53 76.03L201.64 78.56L197.92 81.3L194.38 84.26L191.02 87.42L187.86 90.77L184.9 94.31L182.15 98.02L179.63 101.9L177.34 105.94L175.29 110.14L173.49 114.47L171.94 118.94L170.67 123.54L169.67 128.25L168.96 133.07L168.55 137.99L168.44 143L168.64 148.1L169.13 152.87L169.9 157.56L170.95 162.16L172.27 166.66L173.86 171.05L175.71 175.32L177.8 179.46L180.13 183.46L182.69 187.31L185.49 191L188.49 194.52L191.71 197.85L195.13 201L198.74 203.94L202.55 206.67L206.53 209.17L210.68 211.45L214.99 213.48L219.46 215.25L224.08 216.77L228.84 218.01L233.86 218.99L238.85 219.65L243.82 219.99L248.76 220L253.67 219.69L258.55 219.07L263.41 218.12L268.23 216.86L273.01 215.28L277.77 213.38L281.99 211.4L286.06 209.19L289.98 206.75L293.73 204.09L297.33 201.2L300.78 198.09L304.07 194.75L300.74 191.69Z" fill="white"/>
<path fill-rule="evenodd" clip-rule="evenodd" d="M882.68 68.26L914.2 61.46L912.96 56.98L909.98 46.24L879.51 56.98L879.52 56.77L881.48 25.28H865.56L867.52 56.77L837.07 46.25L832.83 61.45L864.15 68.26L840.54 93.95L852.77 103.89L873.52 75.15L894.06 103.9L906.5 93.73L889.11 75.15L882.68 68.26Z" fill="#FF0000"/>
<path fill-rule="evenodd" clip-rule="evenodd" d="M86.47 0L58.95 36.94L69.7399 44.93L97.26 8L86.47 0Z" fill="white"/>
</svg>
